<?xml version="1.0" encoding="UTF-8"?> <svg xmlns="http://www.w3.org/2000/svg" width="191" height="35.514" viewBox="0 0 191 35.514"><g id="akribos-logo" transform="translate(0 0.02)"><g id="Group_5" data-name="Group 5" transform="translate(46.486 24.854)"><path id="Path_25" data-name="Path 25" d="M135.173,82.74,145.4,77.264,135,72.1h6.647l6.888,3.615,6.54-3.615h5.786l-9.4,4.89L163.1,82.74H156.28l-7.886-4.133-7.3,4.133Z" transform="translate(-135 -72.1)" fill="#222"></path><path id="Path_26" data-name="Path 26" d="M224.373,82.74,234.6,77.264,224.2,72.1h6.647l6.888,3.615,6.54-3.615h5.786l-9.4,4.89L252.3,82.74H245.48l-7.886-4.133-7.3,4.133Z" transform="translate(-193.485 -72.1)" fill="#222"></path><path id="Path_27" data-name="Path 27" d="M323.4,82.74V72.1h5.027V82.74Z" transform="translate(-258.526 -72.1)" fill="#222"></path><path id="Path_28" data-name="Path 28" d="M369.5,82.74,357,72.1h5.75l8.749,7.713,8.332-7.713h4.994L372.946,82.74Z" transform="translate(-280.556 -72.1)" fill="#222"></path></g><g id="Group_6" data-name="Group 6" transform="translate(0 -0.02)"><path id="Path_29" data-name="Path 29" d="M0,16.977,10.985,0h4.339L26.437,16.977H21.384l-2.341-3.719H6.748L4.476,16.977Zm8.678-6.784H17.19L12.981,3.31Z" transform="translate(0 0.047)" fill="#222"></path><path id="Path_30" data-name="Path 30" d="M94.9,16.977V0h4.545V7.093L110.222,0h6.542L103.885,7.99l14.423,8.985h-7.259L99.411,9.5v7.474Z" transform="translate(-62.223 0.047)" fill="#222"></path><path id="Path_31" data-name="Path 31" d="M181.6,16.987V.01h16.6A5.6,5.6,0,0,1,201.537.8a2.967,2.967,0,0,1,1.033,2.513v3.96a3.01,3.01,0,0,1-1.033,2.513,5.6,5.6,0,0,1-3.341.792h-2.549l8.952,6.405h-6.472l-7.817-6.405h-4.27v6.405ZM196.2,2.973H186.033V7.7H196.2a3.022,3.022,0,0,0,1.617-.31,1.225,1.225,0,0,0,.447-1.033V4.313a1.14,1.14,0,0,0-.447-1.033,2.8,2.8,0,0,0-1.617-.31Z" transform="translate(-119.067 0.037)" fill="#222"></path><path id="Path_32" data-name="Path 32" d="M269.1,16.977V0h4.511V16.977Z" transform="translate(-176.438 0.047)" fill="#222"></path><path id="Path_33" data-name="Path 33" d="M311,16.987V.01h16.632A5.6,5.6,0,0,1,330.973.8a2.922,2.922,0,0,1,1.033,2.513V5.382a2.4,2.4,0,0,1-.861,1.962,4.516,4.516,0,0,1-2.48.9,4.66,4.66,0,0,1,2.582,1.033,2.859,2.859,0,0,1,.9,2.2v2.168a2.731,2.731,0,0,1-1.419,2.513,8.725,8.725,0,0,1-4.3.828ZM325.738,2.765H315.443V6.827h10.295a3.486,3.486,0,0,0,1.617-.277.983.983,0,0,0,.447-.965V3.97a.96.96,0,0,0-.447-.929,3.587,3.587,0,0,0-1.617-.277Zm0,6.857H315.443V13.96h10.295a3.052,3.052,0,0,0,1.757-.345,1.4,1.4,0,0,0,.447-1.206V11.123a1.329,1.329,0,0,0-.447-1.182,3.052,3.052,0,0,0-1.757-.324Z" transform="translate(-203.91 0.037)" fill="#222"></path><path id="Path_34" data-name="Path 34" d="M396.453,4.047a4.1,4.1,0,0,1,1-3.168,5.928,5.928,0,0,1,3.783-.861h14.255a5.977,5.977,0,0,1,3.821.861,4.045,4.045,0,0,1,1,3.168v8.961a4.046,4.046,0,0,1-1,3.168,6.21,6.21,0,0,1-3.821.861H401.234a5.977,5.977,0,0,1-3.821-.861,4.045,4.045,0,0,1-1-3.168V4.047Zm4.511,9.744h14.875V3.058H400.964Z" transform="translate(-259.921 0.02)" fill="#222"></path><path id="Path_35" data-name="Path 35" d="M509.071,2.978h-12.7v3.66h12.087a6.162,6.162,0,0,1,3.857.861,4.1,4.1,0,0,1,1,3.168v2.341a4.045,4.045,0,0,1-1,3.168,6.1,6.1,0,0,1-3.857.861H496.47a6.162,6.162,0,0,1-3.856-.861,4.1,4.1,0,0,1-1-3.168V12.55l3.991-.709V13.8h13.714V9.935H497.234a5.977,5.977,0,0,1-3.821-.861,4.046,4.046,0,0,1-1-3.168V4.038a4.1,4.1,0,0,1,1-3.168,6.209,6.209,0,0,1,3.814-.851h11.018A6.216,6.216,0,0,1,512,.846a3.513,3.513,0,0,1,1.033,2.892v.345l-3.994.828V2.978Z" transform="translate(-322.336 0.029)" fill="#222"></path></g></g></svg> 