<svg xmlns="http://www.w3.org/2000/svg" viewBox="0 0 283.46 101.22" width="165px" height="60px"><defs><style>.cls-1,.cls-2{fill:#1d1d1b;}.cls-1{fill-rule:evenodd;}</style></defs><title>logo_black</title><g id="Livello_2" data-name="Livello 2"><g id="Livello_1-2" data-name="Livello 1"><path class="cls-1" d="M114.67,33.71a13.9,13.9,0,0,0,5.16-.53q3.34-.94,4.51-2.93t-1.29-2.46a6.5,6.5,0,0,0-5.1,1.88q-2.76,2.17-3.28,4M273,33.18H261.54a18,18,0,0,1-2.05,8.38,17.15,17.15,0,0,1-7.68,7.91q-4.87,2.4-9,.29a10,10,0,0,1-5.1-7.45c-.08-.35-.14-.68-.18-1l-11.84,7.09h-6.45l5.16-17.18-8.09,4.34L211.82,49h-7.45l2.4-7.09-12.55,7.27h-4.87L189,47.6q-1.06.59-2.23,1.11-5.92,2.23-9.56-.41a9,9,0,0,1-3.81-5.86L162.46,49h-5.92l5.63-19.29L155.83,34l-4.46,15.13H144l6-18.76-6.86,4.69-4.46,14.07h-6.86l1.76-5.69q-9.26,6.74-16.77,6.86t-9.91-6l-9,4.87H89.7l1.82-6L81,49.13H72.87l1.82-6.22L63.9,49.13H56l4-15.19H48.84Q43,44.73,33.18,48.48T15.54,47.37L18,41q11.55,6.8,22.34-6.92H14.72L8.33,52.7q125.93,26.68,257.55.35Zm-20.34-2.93a2.81,2.81,0,0,0-3.34-.18,8.45,8.45,0,0,0-3.46,3.63,10.91,10.91,0,0,0-1.7,5.28,4.3,4.3,0,0,0,1.23,3.81,2.89,2.89,0,0,0,3.4.18,9,9,0,0,0,3.46-3.58,12.12,12.12,0,0,0,1.7-5.28,4.5,4.5,0,0,0-1.29-3.87m-60.33-7.39a10.52,10.52,0,0,1,3.46,1.93l.88-2.58h7.45l-5,16.18,10.9-6L213,23.15h6.68l-1,3.34q2.11-.88,5.45-2.52a9.67,9.67,0,0,1,6.27-1.05q3,.59,1.52,6.8t-2.58,9.73l9-5.28a16.54,16.54,0,0,1,1.17-2.7,17.23,17.23,0,0,1,7.62-7.91q4.92-2.4,9-.35a8.68,8.68,0,0,1,3.4,3h23.92L272.09,57.45l-3.69.88a11.33,11.33,0,0,0-1.23.29H267Q136.66,88.17,0,57.16L10.55,27.32H43.74Q50.83,12,58,5.68q7.86-7,20.17-4.87L66.54,39.28l10.9-5.22,6.63-22a12.84,12.84,0,0,1,.76-2.23Q89.47-1.06,101.31.11l-2,7A8.13,8.13,0,0,0,91.63,12L83,40.16l11.2-6,6.68-22.1q.47-1.52.76-2.23t.64-1.29q4.75-9.5,15.83-8.44l-2,7A8.13,8.13,0,0,0,108.46,12l-8.68,28.2,6.45-2.81.06-.06h-.12a24.23,24.23,0,0,1,2.35-6.86,20.58,20.58,0,0,1,5.92-7,13.52,13.52,0,0,1,8.44-3.28,9.24,9.24,0,0,1,7.15,2.4,7.78,7.78,0,0,1,2.52,6.21q-.17,3.58-4.45,7.39a19.05,19.05,0,0,1-4.46,2.93,14.08,14.08,0,0,1-4.81,1.23q-5,.35-5.16-.06-.18,3.87,5.34,2.93a20.84,20.84,0,0,0,5.51-1.93l.23-.12a98.14,98.14,0,0,0,11.9-7.56L140,22.51l6.92-.06.65,2.29q1.47-.64,2.52-1.23a5.27,5.27,0,0,1,5-.24,10.28,10.28,0,0,1,2.64,2.58q.88-.53,1.58-1,2.11-1.35,2.76-1.7a5.72,5.72,0,0,1,2.58-.53,4.27,4.27,0,0,1,2.46.53A6,6,0,0,1,168.91,25q.82,1.11.35,3.64L167,38l7.74-4.28a9.36,9.36,0,0,1,1.06-2.05,20.92,20.92,0,0,1,7.45-7.33q4.75-2.87,9.09-1.47m-1.76,6.92a4.4,4.4,0,0,0-4.16.41,9.49,9.49,0,0,0-3.81,3.52,8.66,8.66,0,0,0-1.47,4.57,3.67,3.67,0,0,0,1.58,3.52,4.32,4.32,0,0,0,4.1.06,9,9,0,0,0,4-3.52,9.27,9.27,0,0,0,1.52-5.1q-.06-2.64-1.76-3.46M52,27.26h9.85L68.18,8q-5.22.94-8.79,6.16A85.49,85.49,0,0,0,52,27.26"/><path class="cls-2" d="M21.26,91a3.6,3.6,0,0,1,.88,2.65v4.57H19.82V94a2.17,2.17,0,0,0-.39-1.42,1.39,1.39,0,0,0-1.12-.47,1.65,1.65,0,0,0-1.29.53,2.27,2.27,0,0,0-.48,1.57v4H14.23V94q0-1.89-1.51-1.89a1.63,1.63,0,0,0-1.28.53A2.27,2.27,0,0,0,11,94.21v4H8.64v-8h2.21v.92a2.92,2.92,0,0,1,1.09-.77,3.68,3.68,0,0,1,1.42-.27,3.44,3.44,0,0,1,1.53.33,2.72,2.72,0,0,1,1.1,1,3.28,3.28,0,0,1,1.24-1,3.91,3.91,0,0,1,1.64-.34A3.22,3.22,0,0,1,21.26,91Z"/><path class="cls-2" d="M39.51,94.88h-6a1.88,1.88,0,0,0,.77,1.17,2.56,2.56,0,0,0,1.52.43,3.06,3.06,0,0,0,1.11-.19,2.68,2.68,0,0,0,.9-.59L39,97a4.14,4.14,0,0,1-3.3,1.29,5.21,5.21,0,0,1-2.39-.53,3.86,3.86,0,0,1-1.6-1.46,4,4,0,0,1-.56-2.12,4.08,4.08,0,0,1,.56-2.12,3.9,3.9,0,0,1,1.53-1.47,4.74,4.74,0,0,1,4.3,0A3.69,3.69,0,0,1,39,92.06a4.32,4.32,0,0,1,.54,2.19S39.54,94.49,39.51,94.88Zm-5.42-2.57a1.9,1.9,0,0,0-.65,1.22h3.94a1.92,1.92,0,0,0-.65-1.21,2,2,0,0,0-1.31-.45A2,2,0,0,0,34.09,92.31Z"/><path class="cls-2" d="M54.38,91a3.38,3.38,0,0,1,1,2.67v4.56H53.21v-1a2.58,2.58,0,0,1-2.44,1.11,3.78,3.78,0,0,1-1.6-.31,2.38,2.38,0,0,1-1-.86,2.24,2.24,0,0,1-.36-1.25,2.08,2.08,0,0,1,.84-1.75,4.27,4.27,0,0,1,2.59-.64h1.84a1.48,1.48,0,0,0-.46-1.17A2,2,0,0,0,51.22,92a4,4,0,0,0-1.25.2,3.32,3.32,0,0,0-1,.54l-.83-1.62a5,5,0,0,1,1.57-.71,7,7,0,0,1,1.88-.25A4.16,4.16,0,0,1,54.38,91Zm-2,5.51a1.51,1.51,0,0,0,.65-.81v-.82H51.47q-1.43,0-1.43.94a.83.83,0,0,0,.35.71,1.57,1.57,0,0,0,1,.26A2,2,0,0,0,52.4,96.5Z"/><path class="cls-2" d="M65.64,98.09a5.12,5.12,0,0,1-1.51-.62l.77-1.66a4.87,4.87,0,0,0,1.29.56,5.41,5.41,0,0,0,1.48.21q1.47,0,1.47-.73a.52.52,0,0,0-.4-.49,6,6,0,0,0-1.23-.25,11.81,11.81,0,0,1-1.62-.34,2.51,2.51,0,0,1-1.11-.68,1.94,1.94,0,0,1-.47-1.4,2.19,2.19,0,0,1,.44-1.34A2.82,2.82,0,0,1,66,90.44a5.46,5.46,0,0,1,2-.33,7.82,7.82,0,0,1,1.69.19,4.72,4.72,0,0,1,1.39.51l-.77,1.65a4.61,4.61,0,0,0-2.3-.59,2.34,2.34,0,0,0-1.11.21.61.61,0,0,0-.37.53.53.53,0,0,0,.4.52,7,7,0,0,0,1.28.28,13.91,13.91,0,0,1,1.6.35,2.41,2.41,0,0,1,1.08.68,1.92,1.92,0,0,1,.46,1.37,2.11,2.11,0,0,1-.45,1.32,2.85,2.85,0,0,1-1.3.9,5.79,5.79,0,0,1-2,.32A7.78,7.78,0,0,1,65.64,98.09Z"/><path class="cls-2" d="M88.25,90.23v8h-2.2v-1a3.06,3.06,0,0,1-1.1.79,3.45,3.45,0,0,1-1.38.28,3.4,3.4,0,0,1-2.49-.91,3.61,3.61,0,0,1-.92-2.69V90.23h2.32V94.4q0,1.93,1.62,1.93a1.74,1.74,0,0,0,1.34-.54,2.29,2.29,0,0,0,.5-1.61v-4Z"/><path class="cls-2" d="M101.16,90.41a4.17,4.17,0,0,1,1.63-.3v2.14l-.52,0a2.12,2.12,0,0,0-1.56.56,2.25,2.25,0,0,0-.56,1.67v3.77H97.83v-8H100v1.05A2.58,2.58,0,0,1,101.16,90.41Z"/><path class="cls-2" d="M119.3,94.88h-6a1.88,1.88,0,0,0,.77,1.17,2.56,2.56,0,0,0,1.52.43,3.06,3.06,0,0,0,1.11-.19,2.68,2.68,0,0,0,.9-.59L118.78,97a4.14,4.14,0,0,1-3.3,1.29,5.21,5.21,0,0,1-2.39-.53,3.86,3.86,0,0,1-1.6-1.46,4,4,0,0,1-.56-2.12,4.08,4.08,0,0,1,.56-2.12A3.9,3.9,0,0,1,113,90.64a4.74,4.74,0,0,1,4.3,0,3.69,3.69,0,0,1,1.49,1.45,4.32,4.32,0,0,1,.54,2.19S119.33,94.49,119.3,94.88Zm-5.42-2.57a1.9,1.9,0,0,0-.65,1.22h3.94a1.92,1.92,0,0,0-.65-1.21,2,2,0,0,0-1.31-.45A2,2,0,0,0,113.88,92.31Z"/><path class="cls-2" d="M147.87,90.23l-3.61,8.48a4.18,4.18,0,0,1-1.36,1.95,3.33,3.33,0,0,1-2,.56,4,4,0,0,1-1.23-.19,2.73,2.73,0,0,1-1-.53l.85-1.65a2,2,0,0,0,.62.37,1.93,1.93,0,0,0,.69.13,1.23,1.23,0,0,0,.77-.23,2,2,0,0,0,.53-.76l0-.07-3.46-8h2.39l2.24,5.42,2.26-5.42Z"/><path class="cls-2" d="M157.56,97.81A3.92,3.92,0,0,1,156,96.35a4.28,4.28,0,0,1,0-4.25,3.92,3.92,0,0,1,1.57-1.46,5.11,5.11,0,0,1,4.52,0,3.94,3.94,0,0,1,1.56,1.46,4.28,4.28,0,0,1,0,4.25,3.94,3.94,0,0,1-1.56,1.46,5.11,5.11,0,0,1-4.52,0Zm3.73-2a2.56,2.56,0,0,0,0-3.22,1.93,1.93,0,0,0-1.46-.6,2,2,0,0,0-1.47.6,2.53,2.53,0,0,0,0,3.22,2,2,0,0,0,1.47.6A1.93,1.93,0,0,0,161.29,95.84Z"/><path class="cls-2" d="M181.23,90.23v8H179v-1a3.06,3.06,0,0,1-1.1.79,3.45,3.45,0,0,1-1.38.28,3.4,3.4,0,0,1-2.5-.91,3.61,3.61,0,0,1-.92-2.69V90.23h2.32V94.4q0,1.93,1.62,1.93a1.74,1.74,0,0,0,1.34-.54,2.29,2.29,0,0,0,.5-1.61v-4Z"/><path class="cls-2" d="M194.14,90.41a4.17,4.17,0,0,1,1.63-.3v2.14l-.52,0a2.12,2.12,0,0,0-1.56.56,2.25,2.25,0,0,0-.56,1.67v3.77h-2.32v-8H193v1.05A2.57,2.57,0,0,1,194.14,90.41Z"/><path class="cls-2" d="M221.41,97.83a2.38,2.38,0,0,1-.84.38,4.25,4.25,0,0,1-1,.13,3.11,3.11,0,0,1-2.21-.73,2.79,2.79,0,0,1-.78-2.14V92.19h-1.23V90.41h1.23V88.46h2.32v1.95h2v1.78h-2v3.25a1.09,1.09,0,0,0,.26.78,1,1,0,0,0,.74.27,1.49,1.49,0,0,0,.94-.3Z"/><path class="cls-2" d="M230.26,88.74a1.26,1.26,0,0,1,0-1.84,1.46,1.46,0,0,1,1-.37,1.5,1.5,0,0,1,1,.36,1.14,1.14,0,0,1,.4.89,1.26,1.26,0,0,1-.4,1,1.63,1.63,0,0,1-2.08,0Zm-.12,1.49h2.32v8h-2.32Z"/><path class="cls-2" d="M254.65,91a3.6,3.6,0,0,1,.88,2.65v4.57h-2.32V94a2.16,2.16,0,0,0-.39-1.42,1.38,1.38,0,0,0-1.12-.47,1.65,1.65,0,0,0-1.29.53,2.27,2.27,0,0,0-.47,1.57v4h-2.32V94q0-1.89-1.51-1.89a1.63,1.63,0,0,0-1.28.53,2.27,2.27,0,0,0-.48,1.57v4H242v-8h2.21v.92a2.91,2.91,0,0,1,1.09-.77,3.68,3.68,0,0,1,1.42-.27,3.44,3.44,0,0,1,1.53.33,2.72,2.72,0,0,1,1.1,1,3.29,3.29,0,0,1,1.24-1,3.91,3.91,0,0,1,1.64-.34A3.22,3.22,0,0,1,254.65,91Z"/><path class="cls-2" d="M272.91,94.88h-6a1.88,1.88,0,0,0,.77,1.17,2.55,2.55,0,0,0,1.51.43,3.06,3.06,0,0,0,1.11-.19,2.69,2.69,0,0,0,.9-.59L272.39,97a4.14,4.14,0,0,1-3.3,1.29,5.21,5.21,0,0,1-2.39-.53,3.87,3.87,0,0,1-1.6-1.46,4,4,0,0,1-.56-2.12,4.08,4.08,0,0,1,.56-2.12,3.9,3.9,0,0,1,1.53-1.47,4.73,4.73,0,0,1,4.3,0,3.69,3.69,0,0,1,1.49,1.45,4.32,4.32,0,0,1,.54,2.19S272.94,94.49,272.91,94.88Zm-5.42-2.57a1.9,1.9,0,0,0-.65,1.22h3.93a1.92,1.92,0,0,0-.65-1.21,2,2,0,0,0-1.31-.45A2,2,0,0,0,267.49,92.31Z"/></g></g></svg>