<svg xmlns="http://www.w3.org/2000/svg" viewBox="0 0 1006.68 341.28"><defs><style>.cls-1{fill:#fff;}</style></defs><g id="Capa_2" data-name="Capa 2"><g id="Calque_1" data-name="Calque 1"><path class="cls-1" d="M106.15,140.64V5.71A5.71,5.71,0,0,0,100.44,0H5.71A5.71,5.71,0,0,0,0,5.71V335.57a5.71,5.71,0,0,0,5.71,5.71h94.73a5.7,5.7,0,0,0,5.71-5.7V176.33H224.61a4,4,0,0,0,3.45-6.06L217.51,152.4a23.92,23.92,0,0,0-20.6-11.76Z"/><path class="cls-1" d="M245.27,13.39a4.56,4.56,0,0,0-7.52,3.46V335.57a5.7,5.7,0,0,0,5.68,5.71h94.75a5.71,5.71,0,0,0,5.74-5.71V111.2a29.07,29.07,0,0,0-10.17-22.08Z"/><path class="cls-1" d="M487.65,197.53l1,138.09a5.7,5.7,0,0,0,5.71,5.66h95.3a5.74,5.74,0,0,0,5.74-5.77l-1.06-143.82a23.41,23.41,0,0,1,5.53-15.28L703,59.83a3.54,3.54,0,0,0-2.64-5.89H656.44a10.12,10.12,0,0,0-7.79,3.58L585,128.23a7.67,7.67,0,0,1-10.53.83L430.19,12.76A57.59,57.59,0,0,0,394.4,0H276.45a4.2,4.2,0,0,0-2.73,7.41L476.44,173.7a31.39,31.39,0,0,1,11.21,23.83"/><path class="cls-1" d="M1001,0H715.22A42.47,42.47,0,0,0,683,14.76L668.9,32.34a2.48,2.48,0,0,0,1.89,4.11H789.86l-2.29,299.12a5.71,5.71,0,0,0,5.71,5.71h93.81a5.71,5.71,0,0,0,5.71-5.71V36.45H1001a5.7,5.7,0,0,0,5.72-5.71v-25A5.71,5.71,0,0,0,1001,0"/></g></g></svg>