<?xml version="1.0" encoding="utf-8"?>
<!-- Generator: Adobe Illustrator 16.0.0, SVG Export Plug-In . SVG Version: 6.00 Build 0)  -->
<!DOCTYPE svg PUBLIC "-//W3C//DTD SVG 1.1//EN" "http://www.w3.org/Graphics/SVG/1.1/DTD/svg11.dtd">
<svg version="1.1" id="Calque_1" xmlns="http://www.w3.org/2000/svg" xmlns:xlink="http://www.w3.org/1999/xlink" x="0px" y="0px"
	 width="110.75px" height="114.005px" viewBox="250.625 330.75 110.75 114.005"
	 enable-background="new 250.625 330.75 110.75 114.005" xml:space="preserve">
<g>
	<path fill="#FFFFFF" d="M350.618,390.782L350.618,390.782L350.618,390.782l-0.103-0.051c-1.543-0.565-3.239-0.874-5.038-0.874
		l-0.925,0.051h-0.257h-0.052l0,0c-8.533,0.669-12.542,7.916-12.646,14.444c0,0.052,0,0.103,0,0.103c0,0.052,0,0.154,0,0.154
		c0,4.421-1.079,7.711-3.289,10.075l-0.36,0.359c-2.878,2.725-6.579,2.827-7.659,2.827l-0.668-0.051c0,0-0.977-0.052-2.313-0.411
		l-0.308-0.104c-0.052,0-0.154-0.051-0.154-0.051c-1.285-0.411-2.416-0.977-3.393-1.646l-0.154-0.153l-0.72-0.565
		c-0.052-0.052-0.154-0.154-0.154-0.154c-1.901-1.696-3.136-3.804-3.752-6.478c-0.36-1.438-0.515-2.93-0.463-4.42
		c0-4.729,1.49-8.379,4.317-10.641c3.033-2.416,6.785-2.673,9.099-2.159c0.052,0,2.879,0.463,4.164,3.033
		c0.257,0.359,0.359,0.771,0.411,1.079c0,0.154,0.051,0.257,0.051,0.36c0,0.411-0.103,0.771-0.205,1.027l-0.104,0.411v0.104v0.103
		l0.052,0.874c0.154,0.771,0.874,1.336,1.748,1.336c0.359,0,0.72-0.051,1.079-0.153c0.617-0.258,1.028-0.617,1.183-1.183
		c0.359-1.388-0.977-3.341-1.594-4.164c-2.262-2.673-5.603-4.112-9.406-4.112c-4.37,0-8.688,1.954-11.515,5.192v-20.664
		l0.052-27.089c0-4.936,0-10.59,8.738-13.57h-0.104c0.052,0,0.052,0,0.104-0.052h-11.926l-12.594-0.052c0.052,0,0.052,0,0.103,0.052
		h-0.103c2.21,0.771,3.855,1.696,5.089,2.725l0.052,0.051c0.103,0.104,0.257,0.206,0.359,0.309
		c3.238,3.033,3.238,6.939,3.238,10.486v47.855v2.673c-0.103-0.103-0.565-0.565-1.285-1.284
		c-4.163-4.216-17.322-17.528-23.233-24.365l-1.8-2.159c-0.103-0.103-8.173-9.047-1.645-15.523
		c3.187-3.187,8.275-4.575,13.057-3.547c4.985,1.079,8.789,4.472,10.743,9.51v-0.103c0,0.051,0,0.051,0.051,0.051v-3.804l0.052-4.01
		c-0.103-0.103-11-7.042-23.594-0.925c-0.103,0.052-11.36,5.809-6.888,16.397c1.131,2.879,2.878,5.346,4.163,6.837
		c0,0,0,0,0.36,0.411c0.051,0.051,0.051,0.051,0.103,0.103c0,0-0.052,0.052-0.103,0.052c-0.515,0.257-2.57,1.388-4.627,2.827
		c-5.037,3.084-13.519,9.561-13.519,18.351c0,13.262,11.617,22.565,28.22,22.565l2.622-0.103l0.565-0.052l1.696-0.154
		c3.547-0.359,6.836-1.182,9.715-2.364l0.359-0.154c0.052,0,1.028-0.463,1.028-0.463l1.389-0.719l0.359-0.206
		c2.262-1.285,4.112-2.673,5.603-4.164c0.052,0.104,0.154,0.206,0.206,0.309c1.594,2.107,6.477,7.557,14.188,8.02h0.153h0.874
		c5.758,0,9.304-2.827,11.258-5.192c1.079-1.388,1.799-2.775,2.21-3.649c0.154,0.411,0.309,0.822,0.514,1.233
		c1.285,2.879,3.393,5.089,6.169,6.374c1.901,0.874,3.958,1.337,6.22,1.337c0.873,0,1.747-0.104,2.724-0.257h0.104
		c7.196-1.234,10.332-7.402,10.794-12.697C359.819,400.344,357.351,393.301,350.618,390.782 M316.075,333.674h0.104
		c-2.827,0.977-4.729,2.211-6.015,3.649C311.397,335.885,313.3,334.651,316.075,333.674 M296.131,360.198v0.103
		c-0.309-0.822-0.668-1.646-1.079-2.364C295.463,358.656,295.822,359.375,296.131,360.198 M267.448,378.806
		c-3.238,2.57-7.607,7.094-8.687,13.364C259.841,385.9,264.21,381.376,267.448,378.806 M289.602,416.895
		c-9.767,2.313-23.079-1.49-28.426-11.874c-1.85-3.598-2.621-6.888-2.621-9.869c0-12.131,12.491-18.813,12.646-18.864
		c0,0.051,28.991,29.813,28.991,29.813C300.14,411.292,296.182,415.353,289.602,416.895 M300.397,397.722
		C300.397,397.722,300.346,397.67,300.397,397.722v-1.131V397.722z M291.71,333.623c-0.051,0-0.051,0-0.103-0.052l11.926,0.052
		H291.71z M303.585,410.829c0.051-0.051,0.051-0.051,0.103-0.103l0,0C303.687,410.779,303.635,410.829,303.585,410.829
		 M307.388,395.049L307.388,395.049c0.462-0.514,0.925-0.977,1.388-1.388C308.313,394.073,307.85,394.535,307.388,395.049
		 M332.267,410.779c0.103-0.206,0.205-0.411,0.257-0.565c0,0,0,0,0,0.051C332.472,410.418,332.37,410.624,332.267,410.779
		 M345.323,418.283c-5.962,0-9.098-6.58-9.098-13.108c0-9.869,4.935-14.393,9.561-14.393c3.033,0,9.355,3.444,9.355,14.033
		C355.141,411.344,351.697,418.283,345.323,418.283"/>
</g>
<g>
	<path fill="#FFFFFF" d="M259.635,428.512l-5.037-0.052l-0.052,0.258c1.439,0.051,1.8,0.308,1.8,1.747v9.767
		c0,1.799-0.669,1.902-0.823,1.902c-0.359,0-0.565-0.206-0.668-0.617c-0.154-0.72-0.514-1.079-1.079-1.079
		c-0.411,0-0.874,0.359-0.874,0.977c0,0.565,0.411,1.233,1.542,1.233c2.364,0,3.599-2.056,3.599-6.015v-6.527l0,0
		c0-0.258,0-0.411,0.051-0.617c0.154-0.565,0.515-0.771,1.542-0.822V428.512z M270.378,440.283l-4.78-12.131c0,0,0,0-0.051,0.051
		l0,0c-0.052,0.052-0.104,0.154-0.154,0.257c-0.411,0.515-0.823,0.926-1.234,1.183l0,0c0,0.052,0.309,0.617,0.309,0.617
		l-3.906,10.332c-0.411,1.131-0.822,1.542-1.542,1.695l-0.052,0.258l3.495,0.051l0.052-0.257c-0.052-0.052-0.463-0.103-0.463-0.103
		c-0.514-0.052-1.131-0.206-1.131-0.874c0-0.309,0.206-1.028,0.565-2.005l0.822-2.21h4.884l0,0c0,0.052,0.822,2.21,0.822,2.21
		c0.411,0.977,0.617,1.696,0.617,1.953c0,0.771-0.926,0.926-1.696,0.926l-0.052,0.257v0.052h5.141l0.051-0.258
		C271.047,442.082,270.841,441.465,270.378,440.283 M265.597,428.203L265.597,428.203c0,0,0.103,0.257,0.257,0.668L265.597,428.203
		C265.597,428.255,265.597,428.255,265.597,428.203 M262.462,436.737L262.462,436.737h1.183H262.462z M265.854,436.737
		c-1.336,0-3.289-0.052-3.341-0.052l0.052-0.154c0.359-0.874,2.056-5.448,2.21-5.859c0.052,0.154,2.313,5.911,2.364,6.014h-1.285
		V436.737z M267.139,436.737c0-0.052,0-0.103-0.051-0.154L267.139,436.737L267.139,436.737z M278.654,442.442
		c-3.188,0-5.089-3.393-5.089-6.682c0-3.444,1.645-7.146,5.191-7.146c3.084,0,4.626,2.519,4.986,4.884l0.205,0.051l0.052-4.574
		l-0.206-0.052c-0.051,0-0.668,0.977-0.668,0.977c-0.052,0-0.052-0.052-0.103-0.052c-1.337-1.079-2.673-1.542-4.267-1.542
		c-4.112,0-7.094,3.085-7.094,7.351c0,4.421,2.622,7.197,6.888,7.197c1.748,0,3.29-0.566,4.678-1.646l0,0
		c0,0.103,0.515,1.131,0.515,1.131l0,0h0.205l0.052-4.421l-0.206-0.051C283.228,440.745,281.327,442.442,278.654,442.442
		 M283.074,441.311c0.052-0.051,0.154-0.103,0.206-0.153l0,0C283.228,441.208,283.126,441.26,283.074,441.311 M292.686,428.255
		c-2.364,0-6.836,1.542-6.836,7.453c0,2.622,1.439,7.094,6.733,7.094c5.604,0,7.094-4.523,7.094-7.146
		C299.677,430.568,296.028,428.255,292.686,428.255 M292.584,442.493c-3.187,0-4.883-3.341-4.883-6.683
		c0-4.985,2.57-7.196,5.14-7.196c1.646,0,4.986,1.696,4.986,7.042C297.827,438.947,295.976,442.493,292.584,442.493
		 M307.337,435.091c1.902-0.411,2.981-1.645,2.981-3.393c0-1.079-0.617-2.21-1.542-2.621c-1.028-0.514-2.057-0.617-3.393-0.617
		h-0.463l-4.112,0.052l-0.051,0.257c1.182,0.103,1.49,0.206,1.49,1.131v11.36c0,0.771-0.514,0.925-1.49,0.977l-0.052,0.257
		c0.052,0.052,2.21,0.052,2.21,0.052l2.211,0.051c3.804,0,5.911-1.388,5.911-3.906C311.14,436.737,309.65,435.297,307.337,435.091
		 M303.996,428.718l0.154,0.051c0.873,0,1.901,0,2.569,0.257c1.131,0.411,1.8,1.439,1.8,2.879c0,2.879-2.416,3.187-3.496,3.187
		h-1.079L303.996,428.718z M305.743,442.287c-1.079,0-1.747-0.205-1.747-1.336v-5.5l0.925,0.051c2.262,0,4.318,0.258,4.318,3.29
		C309.239,441.054,308.005,442.287,305.743,442.287 M337.51,442.442c-3.188,0-5.089-3.393-5.089-6.682
		c0-3.444,1.645-7.146,5.191-7.146c3.084,0,4.626,2.519,4.986,4.884l0.205,0.051l0.052-4.574l-0.206-0.052
		c-0.051,0-0.668,0.977-0.668,0.977c-0.052,0-0.052-0.052-0.103-0.052c-1.337-1.079-2.673-1.542-4.267-1.542
		c-4.112,0-7.094,3.085-7.094,7.351c0,3.547,1.696,6.066,4.626,6.889c-0.925,1.182-1.953,1.696-3.238,1.696
		c-2.262,0-5.14-2.468-7.813-5.295c0.669-0.874,1.646-2.313,1.646-2.313c0.668-0.926,1.233-1.389,2.313-1.543l0.052-0.205
		l-3.444-0.052l-0.051,0.206c0.051,0.051,0.154,0.051,0.154,0.051c0.309,0,0.72,0.052,0.874,0.258l0.103,0.308
		c-0.052,0.36-1.183,2.005-1.851,3.033c-1.491-1.594-2.879-3.29-4.112-4.729c0.206-0.103,1.079-0.616,1.079-0.616l0.823-0.463
		c1.027-0.72,1.438-1.336,1.438-2.21c0-1.542-1.645-2.468-2.827-2.468c-0.771,0-1.542,0.257-2.21,0.771
		c-0.72,0.565-1.131,1.439-1.131,2.519c0,0.977,0.411,2.159,1.028,3.084c-1.646,0.874-3.188,2.159-3.188,4.523
		c0,2.159,1.594,3.804,3.649,3.804c1.954,0,3.085-1.028,4.062-2.159l0.309-0.411c0,0.052,0.051,0.052,0.103,0.104
		c3.495,3.598,6.271,4.317,8.07,4.317c1.851,0,3.136-0.668,4.369-2.313c0.616,0.154,1.285,0.258,2.005,0.258
		c1.747,0,3.341-0.565,4.678-1.646l0,0c0,0.104,0.514,1.131,0.514,1.131l0,0h0.205l0.052-4.42l-0.205-0.052
		C342.085,440.745,340.183,442.442,337.51,442.442 M319.724,433.858L319.724,433.858c0.104-0.051,0.206-0.103,0.309-0.205
		C319.93,433.755,319.828,433.807,319.724,433.858 M317.926,430.568c0-0.822,0.257-1.336,0.926-1.645
		c0.359-0.154,0.822-0.205,1.388-0.103c1.079,0.205,1.851,1.131,1.851,2.262c0,0.977-1.439,2.158-2.365,2.725
		C318.645,432.573,317.926,431.698,317.926,430.568 M319.519,441.569c-1.851,0-3.136-1.542-3.136-3.753
		c0-1.233,0.617-2.21,1.851-2.981c1.336,1.8,2.879,3.649,4.472,5.295C321.781,441.054,320.855,441.569,319.519,441.569
		 M335.094,442.956c0.103-0.103,0.205-0.257,0.308-0.411l0,0C335.351,442.699,335.249,442.854,335.094,442.956 M341.93,441.311
		c0.052-0.051,0.154-0.103,0.206-0.153l0,0C342.085,441.208,341.982,441.26,341.93,441.311 M351.543,428.255
		c-2.364,0-6.836,1.542-6.836,7.453c0,2.622,1.439,7.094,6.733,7.094c5.603,0,7.094-4.523,7.094-7.146
		C358.534,430.568,354.885,428.255,351.543,428.255 M351.44,442.493c-3.187,0-4.883-3.341-4.883-6.683
		c0-4.985,2.569-7.196,5.14-7.196c1.646,0,4.986,1.696,4.986,7.042C356.683,438.947,354.833,442.493,351.44,442.493"/>
</g>
</svg>
